HIERARCHY
ROOT root
{
	OFFSET	0	13.1	24.9
	CHANNELS 6  Xposition Yposition Zposition Xrotation Yrotation Zrotation
	JOINT spine_1
	{
		OFFSET	0	9.99999	0
		CHANNELS 3  Xrotation Yrotation Zrotation
		JOINT spine_2
		{
			OFFSET	0	112	-10
			CHANNELS 3  Xrotation Yrotation Zrotation
			JOINT spine_3
			{
				OFFSET	0	206.5	19.3
				CHANNELS 3  Xrotation Yrotation Zrotation
				JOINT spine_4
				{
					OFFSET	0	110.4	14.6
					CHANNELS 3  Xrotation Yrotation Zrotation
					JOINT neck_1
					{
						OFFSET	0	71.8	-50.3
						CHANNELS 3  Xrotation Yrotation Zrotation
						JOINT neck_2
						{
							OFFSET	0	86.2	-25.8
							CHANNELS 3  Xrotation Yrotation Zrotation
							JOINT head_ee
							{
								OFFSET	0	179.8	-8.7
								CHANNELS 3  Xrotation Yrotation Zrotation
								End Site
								{
									OFFSET	1	0	0
								}
							}
						}
					}
					JOINT left_clavicle
					{
						OFFSET	-43.2	22.4	-70.8
						CHANNELS 3  Xrotation Yrotation Zrotation
						JOINT left_shoulder
						{
							OFFSET	-93.9	-5.79999	48.7
							CHANNELS 3  Xrotation Yrotation Zrotation
							JOINT left_elbow
							{
								OFFSET	-291.4	-30.8	15.2
								CHANNELS 3  Xrotation Yrotation Zrotation
								JOINT left_lowarm_twist
								{
									OFFSET	-110.7	-3.89999	13.6
									CHANNELS 3  Xrotation Yrotation Zrotation
									JOINT left_hand
									{
										OFFSET	-110.7	-3.89999	13.6
										CHANNELS 3  Xrotation Yrotation Zrotation
										JOINT left_ee
										{
											OFFSET	-80.8	-5.10001	12.1
											CHANNELS 3  Xrotation Yrotation Zrotation
											End Site
											{
												OFFSET	1	0	0
											}
										}
									}
								}
							}
						}
					}
					JOINT right_clavicle
					{
						OFFSET	43.2	22.4	-70.8
						CHANNELS 3  Xrotation Yrotation Zrotation
						JOINT right_shoulder
						{
							OFFSET	93.9	-5.79999	48.7
							CHANNELS 3  Xrotation Yrotation Zrotation
							JOINT right_elbow
							{
								OFFSET	291.4	-30.8	15.2
								CHANNELS 3  Xrotation Yrotation Zrotation
								JOINT right_lowarm_twist
								{
									OFFSET	110.7	-3.89999	13.6
									CHANNELS 3  Xrotation Yrotation Zrotation
									JOINT right_hand
									{
										OFFSET	110.7	-3.89999	13.6
										CHANNELS 3  Xrotation Yrotation Zrotation
										JOINT right_ee
										{
											OFFSET	80.8	-5.10001	12.1
											CHANNELS 3  Xrotation Yrotation Zrotation
											End Site
											{
												OFFSET	1	0	0
											}
										}
									}
								}
							}
						}
					}
				}
			}
		}
	}
	JOINT left_hip
	{
		OFFSET	-82.8	-127.5	0.300001
		CHANNELS 3  Xrotation Yrotation Zrotation
		JOINT left_knee
		{
			OFFSET	-28.2	-396.7	2.2
			CHANNELS 3  Xrotation Yrotation Zrotation
			JOINT left_ankle
			{
				OFFSET	-11.7	-411.3	35.4
				CHANNELS 3  Xrotation Yrotation Zrotation
				JOINT left_toes
				{
					OFFSET	0	-60	-88.6
					CHANNELS 3  Xrotation Yrotation Zrotation
					JOINT left_foot_ee
					{
						OFFSET	-22.5	-16.5	-42.2
						CHANNELS 3  Xrotation Yrotation Zrotation
						End Site
						{
							OFFSET	1	0	0
						}
					}
				}
			}
		}
	}
	JOINT right_hip
	{
		OFFSET	82.8	-127.5	0.300001
		CHANNELS 3  Xrotation Yrotation Zrotation
		JOINT right_knee
		{
			OFFSET	28.2	-396.7	2.2
			CHANNELS 3  Xrotation Yrotation Zrotation
			JOINT right_ankle
			{
				OFFSET	11.7	-411.3	35.4
				CHANNELS 3  Xrotation Yrotation Zrotation
				JOINT right_toes
				{
					OFFSET	0	-60	-88.6
					CHANNELS 3  Xrotation Yrotation Zrotation
					JOINT right_foot_ee
					{
						OFFSET	22.5	-16.5	-42.2
						CHANNELS 3  Xrotation Yrotation Zrotation
						End Site
						{
							OFFSET	1	0	0
						}
					}
				}
			}
		}
	}
}
MOTION
Frames: 9
Frame Time: 0.02
2270.69 729.751 -1303.25 -2.48611 59.1382 -3.1322 1.76096 0.686133 2.22681 1.76356 0.543082 2.26593 1.78538 0.127477 2.32659 1.77817 0.493222 2.2773 -5.506 16.7339 -2.69981 -5.26657 32.8874 0.285727 -0.0 0.0 -0.0 -1.86553 11.3742 -1.81528 -6.64661 -12.5663 67.4054 1.0399 -27.2541 0.252105 14.2351 0.280205 -1.79216 0.221711 9.96019 5.5522 -0.0 0.0 -0.0 11.8697 14.3061 -23.9225 -15.5959 14.0835 -64.0026 0.427096 11.9462 -0.044687 11.3026 -0.259075 1.41823 1.49085 21.7792 -0.578998 0.0 0.0 0.0 3.65228 21.0219 6.69235 -21.026 0.282032 3.1962 41.1831 13.4975 -5.01564 -30.8018 0.0 0.0 -0.0 0.0 -0.0 13.7316 25.5635 1.79344 -26.8754 -0.151008 -4.08389 35.0232 -4.37488 4.40163 -29.578 0.0 0.0 0.0 0.0 0.0 
2268.26 732.053 -1304.99 -2.97354 57.6699 -2.80891 1.86977 0.721033 2.35386 1.87267 0.569834 2.39494 1.89677 0.13544 2.45803 1.88872 0.521828 2.40585 -6.06501 16.4381 -3.34705 -5.88103 32.8712 -0.25314 -0.0 0.0 -0.0 -2.15277 11.5778 -2.26926 -6.2822 -12.4517 66.7949 1.03241 -27.0856 0.248681 14.1309 0.279782 -1.77886 0.199548 10.1057 5.46751 -0.0 0.0 -0.0 11.6332 14.1713 -23.3888 -15.5006 13.7857 -64.2245 0.439186 12.2742 -0.0472233 11.4238 -0.260327 1.43366 1.4447 21.6135 -0.351031 0.0 0.0 0.0 3.17819 20.8016 6.6213 -20.2014 0.293191 3.07016 41.1828 13.427 -5.01468 -30.9231 0.0 0.0 -0.0 0.0 -0.0 13.6264 25.8253 1.63257 -26.2722 -0.168705 -3.993 34.262 -3.93698 4.32815 -29.818 0.0 0.0 0.0 0.0 0.0 
2264.63 732.478 -1305.08 -3.63367 57.4175 -2.13257 2.04309 0.595147 2.38312 2.04614 0.442342 2.41614 2.06484 0.0133015 2.45623 2.05664 0.400935 2.42335 -5.95106 16.4174 -3.38363 -5.75076 32.8473 -0.331078 -0.0 0.0 -0.0 -2.16103 11.6807 -2.26589 -5.22773 -12.5049 66.1349 1.09263 -28.424 0.276729 14.2712 0.280345 -1.79677 0.19163 9.79969 5.29446 -0.0 0.0 -0.0 11.6419 14.0945 -23.4109 -15.5551 13.521 -64.192 0.379975 10.6602 -0.0354506 11.5225 -0.261323 1.44623 1.41306 21.4621 -0.211579 0.0 0.0 0.0 3.3749 20.9806 6.71645 -20.383 0.290889 3.09793 41.1735 13.425 -5.01385 -31.0223 0.0 0.0 -0.0 0.0 -0.0 13.5653 25.9404 1.67066 -25.938 -0.178095 -3.94259 34.4536 -4.05739 4.3467 -29.8026 0.0 0.0 0.0 0.0 0.0 
2260.57 731.56 -1305.55 -3.5436 57.5019 -2.27065 2.0776 0.472281 2.45967 2.08091 0.314858 2.48472 2.09448 -0.123037 2.50155 2.08585 0.273456 2.48961 -5.57298 16.1344 -3.3402 -5.33083 32.2517 -0.45945 -0.0 0.0 -0.0 -2.24893 12.5445 -2.26667 -4.59847 -11.718 65.2904 1.25193 -31.8047 0.356691 13.9217 0.278861 -1.75216 -0.0529188 7.30243 2.69745 -0.0 0.0 -0.0 11.7986 14.1982 -23.7639 -15.324 12.5438 -63.3142 0.229296 6.48041 -0.0129811 11.5403 -0.2615 1.44849 1.47323 21.7907 -0.458054 0.0 0.0 0.0 0.175196 20.4737 8.39893 -15.8918 0.321936 2.40971 41.1599 12.1931 -4.9977 -30.4427 0.0 0.0 -0.0 0.0 -0.0 13.1045 26.2222 1.95896 -25.8783 -0.179744 -3.93356 35.7357 -3.70981 4.47144 -29.7518 0.0 0.0 0.0 0.0 0.0 
2256.28 730.882 -1305.71 -3.38594 58.3584 -2.46568 2.07163 0.484191 2.43429 2.07487 0.328358 2.46015 2.0889 -0.105688 2.4797 2.08044 0.287139 2.4653 -4.98925 16.1022 -3.49476 -4.66693 32.2424 -0.8059 -0.0 0.0 -0.0 -2.02141 11.456 -2.06667 -4.07726 -12.5485 64.8179 1.33852 -33.5452 0.40344 13.7453 0.278008 -1.72964 0.0099116 7.60444 3.23009 -0.0 0.0 -0.0 11.6501 13.6965 -23.4405 -15.7323 11.7219 -62.7459 0.187899 5.31787 -0.00872616 11.7314 -0.263359 1.47284 1.47667 21.6662 -0.537269 0.0 0.0 0.0 -0.0646909 20.0981 8.45326 -15.6647 0.322072 2.37487 41.3598 11.5925 -5.00838 -30.4673 0.0 0.0 -0.0 0.0 -0.0 12.3967 26.2185 2.45553 -25.7968 -0.181975 -3.92127 36.7622 -3.51656 4.56869 -29.7037 0.0 0.0 0.0 0.0 0.0 
2253.92 730.997 -1305.54 -4.31133 58.1809 -1.56919 2.08724 0.446677 2.40285 2.0904 0.292918 2.42638 2.10271 -0.134137 2.44031 2.09448 0.252831 2.43089 -4.65317 15.8033 -3.38353 -4.30533 31.5723 -0.843009 -0.0 0.0 -0.0 -2.08618 13.0633 -1.90741 -3.21528 -11.9021 63.8711 1.46348 -35.9385 0.474667 13.3458 0.27582 -1.67866 -0.20112 5.01035 0.774894 -0.0 0.0 -0.0 11.5713 13.6847 -23.2622 -15.6486 10.9819 -62.6842 0.194821 5.51259 -0.00937934 12.3969 -0.269198 1.55764 1.40593 21.1883 -0.288466 0.0 0.0 0.0 -3.17354 20.3305 9.98939 -8.45217 0.254632 1.27099 41.3631 10.8921 -5.0018 -31.8552 0.0 0.0 -0.0 0.0 -0.0 12.6955 25.8582 2.444 -25.5082 -0.189744 -3.87765 36.2335 -3.53443 4.51908 -29.3633 0.0 0.0 0.0 0.0 0.0 
2247.24 732.062 -1308.91 -4.06438 58.9291 -2.0659 2.02081 0.399838 2.42278 2.02404 0.244907 2.4433 2.03441 -0.187327 2.44839 2.0261 0.201582 2.44725 -4.35308 15.8599 -3.65583 -3.95257 31.8455 -1.20803 -0.0 0.0 -0.0 -2.03404 13.1701 -1.80314 -2.89363 -11.027 63.4593 1.61675 -38.6879 0.567604 13.417 0.276236 -1.68775 -0.263023 4.26662 0.0546114 -0.0 0.0 -0.0 11.3757 13.6932 -22.8198 -15.7427 10.4823 -62.3812 0.177161 5.01558 -0.00775923 12.8465 -0.272585 1.61497 1.38012 20.7807 -0.30244 0.0 0.0 0.0 -6.19404 19.8751 11.4632 -4.35873 0.154762 0.650871 39.8386 10.4727 -4.86593 -32.7088 0.0 0.0 -0.0 0.0 -0.0 12.0135 25.4675 2.94696 -26.2103 -0.170465 -3.98368 36.5852 -3.38165 4.55252 -29.1944 0.0 0.0 0.0 0.0 0.0 
2239.29 728.759 -1310.35 -4.72112 60.2724 -1.55605 1.97548 0.343513 2.40231 1.97867 0.189998 2.41929 1.98662 -0.239235 2.41492 1.97852 0.145043 2.4224 -2.29142 15.734 -4.32329 -1.6046 31.8835 -2.55444 -0.0 0.0 -0.0 -2.01852 13.813 -1.67039 -2.97815 -10.7339 63.4572 1.82653 -42.1351 0.703662 13.3045 0.275573 -1.67339 -0.340971 3.67566 -0.709686 -0.0 0.0 -0.0 11.2684 13.4526 -22.5843 -16.2796 9.76503 -61.8114 0.183313 5.18881 -0.00830624 13.3156 -0.275639 1.6748 1.23654 20.2626 0.41306 0.0 0.0 0.0 -8.74963 19.29 12.7624 2.00234 -0.0876192 -0.294746 38.2483 10.3167 -4.7217 -32.9154 0.0 0.0 -0.0 0.0 -0.0 10.664 25.578 4.27664 -25.3721 -0.19333 -3.85707 39.0492 -2.53786 4.77922 -28.9709 0.0 0.0 0.0 0.0 0.0 
2230.8 728.0 -1311.5 -5.15341 61.511 -1.44739 1.97648 0.233137 2.40043 1.97968 0.0799641 2.41039 1.98291 -0.346228 2.38675 1.97496 0.0349461 2.41147 -1.3081 15.6737 -4.68575 -0.478163 31.9362 -3.24804 -0.0 0.0 -0.0 -1.93119 14.3139 -1.44486 -2.78668 -10.3784 63.4363 1.95184 -44.0307 0.789266 13.3618 0.275914 -1.68069 -0.385658 3.23693 -1.1917 -0.0 0.0 -0.0 11.0812 12.7259 -22.1814 -16.9559 8.96895 -61.7623 0.195998 5.5457 -0.00949275 13.6243 -0.277382 1.7142 1.16056 19.9436 0.773311 0.0 0.0 0.0 -11.269 19.2205 14.3542 6.67162 -0.331634 -0.969142 36.5162 10.3403 -4.56015 -33.3147 0.0 0.0 -0.0 0.0 -0.0 9.58686 25.4423 4.90219 -25.5725 -0.188031 -3.88738 39.8985 -1.4636 4.85807 -29.1458 0.0 0.0 0.0 0.0 0.0 
